<svg width="861" height="373" viewBox="0 0 861 373" fill="none" xmlns="http://www.w3.org/2000/svg">
<path d="M448.465 200.631C448.465 192.574 451.018 184.482 456.644 178.555C462.47 172.252 470.761 169.272 479.251 169.272C484.884 169.272 490.531 170.36 495.723 172.555L492.201 186.027C488.478 184.613 484.608 183.763 480.614 183.763C475.615 183.763 471.867 185.31 469.367 188.404C466.944 191.499 465.732 195.574 465.732 200.631C465.732 205.989 466.868 210.14 469.14 213.084C471.488 216.027 475.54 217.499 481.295 217.499C485.699 217.499 490.287 216.839 494.36 215.121L496.745 228.933C491.389 231.191 485.367 231.989 479.591 231.989C474.139 231.989 469.443 231.197 465.505 229.612C453.613 224.598 448.465 213.133 448.465 200.631Z" fill="black"/>
<path d="M561.095 200.506C561.095 212.683 555.699 224.784 543.827 229.714C540.268 231.223 536.254 231.978 531.786 231.978C527.393 231.978 523.379 231.223 519.744 229.714C508.13 224.789 502.363 212.72 502.363 200.506C502.363 188.227 508.379 176.441 519.971 171.525C523.606 170.015 527.544 169.26 531.786 169.26C536.102 169.26 540.041 170.015 543.6 171.525C555.239 176.358 561.095 188.28 561.095 200.506ZM543.827 200.506C543.827 192.928 540.808 183.751 531.786 183.751C522.71 183.751 519.63 192.857 519.63 200.506C519.63 208.194 522.618 217.487 531.786 217.487C540.899 217.487 543.827 208.122 543.827 200.506Z" fill="black"/>
<path d="M597.001 218.94C599.787 218.94 602.652 218.945 605.408 218.488V205.695C603.2 205.206 600.85 205.016 598.592 205.016C593.885 205.016 587.005 205.806 587.005 211.922C587.005 217.69 592.105 218.94 597.001 218.94ZM608.134 171.28C618.257 174.719 621.653 184.134 621.653 193.921V229.016C613.164 230.866 604.56 231.959 595.865 231.959C587.059 231.959 576.29 230.344 572.009 221.544C570.797 219.054 570.192 215.997 570.192 212.374C570.192 206.376 572.69 200.963 577.916 197.771C584.601 193.688 593.625 193.005 601.205 194.035C602.947 194.186 604.348 194.412 605.408 194.714C605.408 191.604 605.137 188.558 602.795 186.223C597.376 180.823 584.037 183.738 577.916 185.997L575.758 172.412C585.633 169.384 598.112 167.875 608.134 171.28Z" fill="black"/>
<path d="M660.866 231.96C654.255 231.859 646.583 231.102 641.554 226.3C637.665 222.255 637.01 216.611 637.01 211.243V145.696L653.937 142.979V207.847C653.937 210.23 654.067 212.978 655.527 214.979C657.378 217.233 660.495 217.832 663.252 218.035L660.866 231.96Z" fill="black"/>
<path d="M689.851 231.959H672.925V170.475H689.851V231.959ZM691.442 153.267C691.442 158.964 687.031 163.229 681.331 163.229C675.554 163.229 671.221 159.033 671.221 153.267C671.221 147.585 675.623 143.305 681.331 143.305C686.962 143.305 691.442 147.653 691.442 153.267Z" fill="black"/>
<path d="M722.997 218.261C726.324 218.261 731.517 218.319 731.517 213.846C731.517 209.837 724.229 207.89 721.407 206.827C711.995 203.344 703.912 198.115 703.912 187.355C703.912 181.77 705.995 177.355 710.16 174.11C717.683 168.249 728.809 168.435 737.765 170.261C741.098 170.865 743.748 171.544 745.717 172.299L742.764 185.431C738.171 183.847 733.438 182.827 728.564 182.827C723.262 182.827 720.612 184.299 720.612 187.242C720.612 189.959 722.947 191.11 725.042 192.223C729.619 194.219 734.413 195.658 738.788 198.11C742.586 200.121 746.222 203.236 747.421 207.506C749.697 214.592 748.047 223.094 741.628 227.431C737.235 230.45 730.987 231.959 722.884 231.959C715.998 231.959 708.691 231.158 702.322 228.337L705.162 214.639C710.863 216.881 716.849 218.261 722.997 218.261Z" fill="black"/>
<path d="M760.353 156.223L777.279 153.506V171.053H797.614V185.091H777.279V206.035C777.279 209.582 777.885 212.412 779.097 214.525C782.506 220.121 792.482 217.719 797.614 215.771L800 228.903C794.86 230.989 789.527 231.959 783.982 231.959C779.362 231.959 775.538 231.356 772.508 230.148C766.653 227.668 762.843 222.931 761.375 216.789C760.694 213.62 760.353 210.11 760.353 206.261V156.223Z" fill="black"/>
<path d="M280.509 113.719C284.479 113.719 287.697 110.514 287.697 106.561C287.697 102.609 284.479 99.4043 280.509 99.4043C276.539 99.4043 273.32 102.609 273.32 106.561C273.32 110.514 276.539 113.719 280.509 113.719Z" fill="#FE2E01"/>
<path d="M283.013 98.5429C286.983 98.5429 290.201 95.3385 290.201 91.3857C290.201 87.4329 286.983 84.2285 283.013 84.2285C279.043 84.2285 275.824 87.4329 275.824 91.3857C275.824 95.3385 279.043 98.5429 283.013 98.5429Z" fill="#FE2E01"/>
<path d="M267.118 99.1474C271.088 99.1474 274.307 95.943 274.307 91.9902C274.307 88.0374 271.088 84.833 267.118 84.833C263.148 84.833 259.93 88.0374 259.93 91.9902C259.93 95.943 263.148 99.1474 267.118 99.1474Z" fill="#FE2E01"/>
<path d="M298.31 100.323C302.28 100.323 305.498 97.1188 305.498 93.166C305.498 89.2132 302.28 86.0088 298.31 86.0088C294.339 86.0088 291.121 89.2132 291.121 93.166C291.121 97.1188 294.339 100.323 298.31 100.323Z" fill="#FE2E01"/>
<path d="M295.911 115.251C299.881 115.251 303.099 112.047 303.099 108.094C303.099 104.141 299.881 100.937 295.911 100.937C291.941 100.937 288.723 104.141 288.723 108.094C288.723 112.047 291.941 115.251 295.911 115.251Z" fill="#FE2E01"/>
<path d="M313.364 104.553C317.334 104.553 320.553 101.348 320.553 97.3955C320.553 93.4427 317.334 90.2383 313.364 90.2383C309.394 90.2383 306.176 93.4427 306.176 97.3955C306.176 101.348 309.394 104.553 313.364 104.553Z" fill="#FE2E01"/>
<path d="M297.138 84.6835C301.108 84.6835 304.326 81.4792 304.326 77.5263C304.326 73.5735 301.108 70.3691 297.138 70.3691C293.168 70.3691 289.949 73.5735 289.949 77.5263C289.949 81.4792 293.168 84.6835 297.138 84.6835Z" fill="#FE2E01"/>
<path d="M312.305 88.2304C316.275 88.2304 319.494 85.026 319.494 81.0732C319.494 77.1204 316.275 73.916 312.305 73.916C308.336 73.916 305.117 77.1204 305.117 81.0732C305.117 85.026 308.336 88.2304 312.305 88.2304Z" fill="#FE2E01"/>
<path d="M327.001 93.7714C330.971 93.7714 334.19 90.567 334.19 86.6142C334.19 82.6614 330.971 79.457 327.001 79.457C323.031 79.457 319.812 82.6614 319.812 86.6142C319.812 90.567 323.031 93.7714 327.001 93.7714Z" fill="#FE2E01"/>
<path d="M327.657 110.898C331.627 110.898 334.846 107.694 334.846 103.741C334.846 99.7884 331.627 96.584 327.657 96.584C323.687 96.584 320.469 99.7884 320.469 103.741C320.469 107.694 323.687 110.898 327.657 110.898Z" fill="#FE2E01"/>
<path d="M310.907 119.809C314.877 119.809 318.096 116.604 318.096 112.651C318.096 108.699 314.877 105.494 310.907 105.494C306.937 105.494 303.719 108.699 303.719 112.651C303.719 116.604 306.937 119.809 310.907 119.809Z" fill="#FE2E01"/>
<path d="M303.56 133.153C307.53 133.153 310.748 129.949 310.748 125.996C310.748 122.043 307.53 118.839 303.56 118.839C299.59 118.839 296.371 122.043 296.371 125.996C296.371 129.949 299.59 133.153 303.56 133.153Z" fill="#FE2E01"/>
<path d="M317.243 140.39C321.213 140.39 324.432 137.185 324.432 133.232C324.432 129.28 321.213 126.075 317.243 126.075C313.273 126.075 310.055 129.28 310.055 133.232C310.055 137.185 313.273 140.39 317.243 140.39Z" fill="#FE2E01"/>
<path d="M329.384 150.424C333.354 150.424 336.572 147.219 336.572 143.267C336.572 139.314 333.354 136.109 329.384 136.109C325.414 136.109 322.195 139.314 322.195 143.267C322.195 147.219 325.414 150.424 329.384 150.424Z" fill="#FE2E01"/>
<path d="M324.735 127C328.705 127 331.924 123.796 331.924 119.843C331.924 115.89 328.705 112.686 324.735 112.686C320.765 112.686 317.547 115.89 317.547 119.843C317.547 123.796 320.765 127 324.735 127Z" fill="#FE2E01"/>
<path d="M337.259 137.049C341.229 137.049 344.447 133.844 344.447 129.892C344.447 125.939 341.229 122.734 337.259 122.734C333.289 122.734 330.07 125.939 330.07 129.892C330.07 133.844 333.289 137.049 337.259 137.049Z" fill="#FE2E01"/>
<path d="M352.325 130.262C356.295 130.262 359.514 127.057 359.514 123.104C359.514 119.152 356.295 115.947 352.325 115.947C348.355 115.947 345.137 119.152 345.137 123.104C345.137 127.057 348.355 130.262 352.325 130.262Z" fill="#FE2E01"/>
<path d="M362.142 142.617C366.112 142.617 369.33 139.413 369.33 135.46C369.33 131.507 366.112 128.303 362.142 128.303C358.171 128.303 354.953 131.507 354.953 135.46C354.953 139.413 358.171 142.617 362.142 142.617Z" fill="#FE2E01"/>
<path d="M369.095 126.588C373.065 126.588 376.283 123.383 376.283 119.431C376.283 115.478 373.065 112.273 369.095 112.273C365.125 112.273 361.906 115.478 361.906 119.431C361.906 123.383 365.125 126.588 369.095 126.588Z" fill="#FE2E01"/>
<path d="M366.798 100.708C370.768 100.708 373.986 97.5036 373.986 93.5508C373.986 89.598 370.768 86.3936 366.798 86.3936C362.828 86.3936 359.609 89.598 359.609 93.5508C359.609 97.5036 362.828 100.708 366.798 100.708Z" fill="#FE2E01"/>
<path d="M378.134 139.199C382.104 139.199 385.322 135.995 385.322 132.042C385.322 128.089 382.104 124.885 378.134 124.885C374.164 124.885 370.945 128.089 370.945 132.042C370.945 135.995 374.164 139.199 378.134 139.199Z" fill="#FE2E01"/>
<path d="M369.821 156.063C373.791 156.063 377.01 152.859 377.01 148.906C377.01 144.953 373.791 141.749 369.821 141.749C365.851 141.749 362.633 144.953 362.633 148.906C362.633 152.859 365.851 156.063 369.821 156.063Z" fill="#FE2E01"/>
<path d="M385.317 153.208C389.287 153.208 392.506 150.004 392.506 146.051C392.506 142.098 389.287 138.894 385.317 138.894C381.347 138.894 378.129 142.098 378.129 146.051C378.129 150.004 381.347 153.208 385.317 153.208Z" fill="#FE2E01"/>
<path d="M375.38 170.642C379.35 170.642 382.568 167.437 382.568 163.484C382.568 159.532 379.35 156.327 375.38 156.327C371.41 156.327 368.191 159.532 368.191 163.484C368.191 167.437 371.41 170.642 375.38 170.642Z" fill="#FE2E01"/>
<path d="M390.431 167.992C394.401 167.992 397.619 164.788 397.619 160.835C397.619 156.882 394.401 153.678 390.431 153.678C386.461 153.678 383.242 156.882 383.242 160.835C383.242 164.788 386.461 167.992 390.431 167.992Z" fill="#FE2E01"/>
<path d="M407.29 169.019C411.26 169.019 414.478 165.814 414.478 161.861C414.478 157.908 411.26 154.704 407.29 154.704C403.32 154.704 400.102 157.908 400.102 161.861C400.102 165.814 403.32 169.019 407.29 169.019Z" fill="#FE2E01"/>
<path d="M393.427 183.325C397.397 183.325 400.615 180.121 400.615 176.168C400.615 172.215 397.397 169.011 393.427 169.011C389.457 169.011 386.238 172.215 386.238 176.168C386.238 180.121 389.457 183.325 393.427 183.325Z" fill="#FE2E01"/>
<path d="M394.454 198.801C398.424 198.801 401.642 195.596 401.642 191.644C401.642 187.691 398.424 184.486 394.454 184.486C390.484 184.486 387.266 187.691 387.266 191.644C387.266 195.596 390.484 198.801 394.454 198.801Z" fill="#FE2E01"/>
<path d="M363.786 192.05C367.756 192.05 370.974 188.845 370.974 184.893C370.974 180.94 367.756 177.735 363.786 177.735C359.816 177.735 356.598 180.94 356.598 184.893C356.598 188.845 359.816 192.05 363.786 192.05Z" fill="#FE2E01"/>
<path d="M348.431 192.112C352.401 192.112 355.619 188.908 355.619 184.955C355.619 181.002 352.401 177.798 348.431 177.798C344.461 177.798 341.242 181.002 341.242 184.955C341.242 188.908 344.461 192.112 348.431 192.112Z" fill="#FE2E01"/>
<path d="M348.126 207.795C352.096 207.795 355.314 204.59 355.314 200.638C355.314 196.685 352.096 193.48 348.126 193.48C344.156 193.48 340.938 196.685 340.938 200.638C340.938 204.59 344.156 207.795 348.126 207.795Z" fill="#FE2E01"/>
<path d="M363.579 207.531C367.549 207.531 370.767 204.327 370.767 200.374C370.767 196.421 367.549 193.217 363.579 193.217C359.609 193.217 356.391 196.421 356.391 200.374C356.391 204.327 359.609 207.531 363.579 207.531Z" fill="#FE2E01"/>
<path d="M376.88 220.593C380.85 220.593 384.068 217.388 384.068 213.436C384.068 209.483 380.85 206.278 376.88 206.278C372.91 206.278 369.691 209.483 369.691 213.436C369.691 217.388 372.91 220.593 376.88 220.593Z" fill="#FE2E01"/>
<path d="M393.497 214.518C397.467 214.518 400.685 211.313 400.685 207.36C400.685 203.408 397.467 200.203 393.497 200.203C389.527 200.203 386.309 203.408 386.309 207.36C386.309 211.313 389.527 214.518 393.497 214.518Z" fill="#FE2E01"/>
<path d="M390.243 229.602C394.213 229.602 397.432 226.397 397.432 222.444C397.432 218.491 394.213 215.287 390.243 215.287C386.273 215.287 383.055 218.491 383.055 222.444C383.055 226.397 386.273 229.602 390.243 229.602Z" fill="#FE2E01"/>
<path d="M372.22 235.447C376.19 235.447 379.408 232.243 379.408 228.29C379.408 224.337 376.19 221.133 372.22 221.133C368.25 221.133 365.031 224.337 365.031 228.29C365.031 232.243 368.25 235.447 372.22 235.447Z" fill="#FE2E01"/>
<path d="M344.368 222.949C348.338 222.949 351.557 219.745 351.557 215.792C351.557 211.839 348.338 208.635 344.368 208.635C340.398 208.635 337.18 211.839 337.18 215.792C337.18 219.745 340.398 222.949 344.368 222.949Z" fill="#FE2E01"/>
<path d="M337.364 236.844C341.334 236.844 344.553 233.639 344.553 229.686C344.553 225.734 341.334 222.529 337.364 222.529C333.394 222.529 330.176 225.734 330.176 229.686C330.176 233.639 333.394 236.844 337.364 236.844Z" fill="#FE2E01"/>
<path d="M327.407 248.822C331.377 248.822 334.596 245.618 334.596 241.665C334.596 237.712 331.377 234.508 327.407 234.508C323.437 234.508 320.219 237.712 320.219 241.665C320.219 245.618 323.437 248.822 327.407 248.822Z" fill="#FE2E01"/>
<path d="M315.032 258.302C319.002 258.302 322.221 255.097 322.221 251.144C322.221 247.192 319.002 243.987 315.032 243.987C311.062 243.987 307.844 247.192 307.844 251.144C307.844 255.097 311.062 258.302 315.032 258.302Z" fill="#FE2E01"/>
<path d="M300.813 264.89C304.783 264.89 308.002 261.685 308.002 257.732C308.002 253.78 304.783 250.575 300.813 250.575C296.843 250.575 293.625 253.78 293.625 257.732C293.625 261.685 296.843 264.89 300.813 264.89Z" fill="#FE2E01"/>
<path d="M220.759 238.082C224.729 238.082 227.947 234.878 227.947 230.925C227.947 226.972 224.729 223.768 220.759 223.768C216.789 223.768 213.57 226.972 213.57 230.925C213.57 234.878 216.789 238.082 220.759 238.082Z" fill="#FE2E01"/>
<path d="M207.95 246.466C211.92 246.466 215.139 243.261 215.139 239.309C215.139 235.356 211.92 232.151 207.95 232.151C203.98 232.151 200.762 235.356 200.762 239.309C200.762 243.261 203.98 246.466 207.95 246.466Z" fill="#FE2E01"/>
<path d="M200.376 232.763C204.346 232.763 207.564 229.558 207.564 225.605C207.564 221.653 204.346 218.448 200.376 218.448C196.406 218.448 193.188 221.653 193.188 225.605C193.188 229.558 196.406 232.763 200.376 232.763Z" fill="#FE2E01"/>
<path d="M194.63 253.907C198.6 253.907 201.818 250.703 201.818 246.75C201.818 242.797 198.6 239.593 194.63 239.593C190.66 239.593 187.441 242.797 187.441 246.75C187.441 250.703 190.66 253.907 194.63 253.907Z" fill="#FE2E01"/>
<path d="M173.446 247.113C177.416 247.113 180.635 243.909 180.635 239.956C180.635 236.003 177.416 232.799 173.446 232.799C169.476 232.799 166.258 236.003 166.258 239.956C166.258 243.909 169.476 247.113 173.446 247.113Z" fill="#FE2E01"/>
<path d="M167.88 232.593C171.85 232.593 175.068 229.388 175.068 225.436C175.068 221.483 171.85 218.278 167.88 218.278C163.91 218.278 160.691 221.483 160.691 225.436C160.691 229.388 163.91 232.593 167.88 232.593Z" fill="#FE2E01"/>
<path d="M164.235 217.402C168.205 217.402 171.424 214.198 171.424 210.245C171.424 206.292 168.205 203.088 164.235 203.088C160.265 203.088 157.047 206.292 157.047 210.245C157.047 214.198 160.265 217.402 164.235 217.402Z" fill="#FE2E01"/>
<path d="M181.724 225.578C185.694 225.578 188.912 222.374 188.912 218.421C188.912 214.468 185.694 211.264 181.724 211.264C177.754 211.264 174.535 214.468 174.535 218.421C174.535 222.374 177.754 225.578 181.724 225.578Z" fill="#FE2E01"/>
<path d="M195.505 217.929C199.475 217.929 202.693 214.724 202.693 210.771C202.693 206.819 199.475 203.614 195.505 203.614C191.535 203.614 188.316 206.819 188.316 210.771C188.316 214.724 191.535 217.929 195.505 217.929Z" fill="#FE2E01"/>
<path d="M213.317 224.338C217.287 224.338 220.506 221.133 220.506 217.181C220.506 213.228 217.287 210.023 213.317 210.023C209.347 210.023 206.129 213.228 206.129 217.181C206.129 221.133 209.347 224.338 213.317 224.338Z" fill="#FE2E01"/>
<path d="M209.239 209.163C213.209 209.163 216.428 205.959 216.428 202.006C216.428 198.053 213.209 194.849 209.239 194.849C205.269 194.849 202.051 198.053 202.051 202.006C202.051 205.959 205.269 209.163 209.239 209.163Z" fill="#FE2E01"/>
<path d="M193.31 202.582C197.28 202.582 200.498 199.378 200.498 195.425C200.498 191.472 197.28 188.268 193.31 188.268C189.339 188.268 186.121 191.472 186.121 195.425C186.121 199.378 189.339 202.582 193.31 202.582Z" fill="#FE2E01"/>
<path d="M178.63 210.359C182.6 210.359 185.818 207.155 185.818 203.202C185.818 199.249 182.6 196.045 178.63 196.045C174.66 196.045 171.441 199.249 171.441 203.202C171.441 207.155 174.66 210.359 178.63 210.359Z" fill="#FE2E01"/>
<path d="M178.032 194.763C182.002 194.763 185.221 191.558 185.221 187.605C185.221 183.653 182.002 180.448 178.032 180.448C174.062 180.448 170.844 183.653 170.844 187.605C170.844 191.558 174.062 194.763 178.032 194.763Z" fill="#FE2E01"/>
<path d="M194.009 186.935C197.979 186.935 201.197 183.731 201.197 179.778C201.197 175.825 197.979 172.621 194.009 172.621C190.039 172.621 186.82 175.825 186.82 179.778C186.82 183.731 190.039 186.935 194.009 186.935Z" fill="#FE2E01"/>
<path d="M208.634 193.666C212.604 193.666 215.822 190.462 215.822 186.509C215.822 182.556 212.604 179.352 208.634 179.352C204.664 179.352 201.445 182.556 201.445 186.509C201.445 190.462 204.664 193.666 208.634 193.666Z" fill="#FE2E01"/>
<path d="M211.438 178.305C215.408 178.305 218.627 175.1 218.627 171.147C218.627 167.195 215.408 163.99 211.438 163.99C207.468 163.99 204.25 167.195 204.25 171.147C204.25 175.1 207.468 178.305 211.438 178.305Z" fill="#FE2E01"/>
<path d="M197.579 171.774C201.549 171.774 204.768 168.57 204.768 164.617C204.768 160.664 201.549 157.46 197.579 157.46C193.609 157.46 190.391 160.664 190.391 164.617C190.391 168.57 193.609 171.774 197.579 171.774Z" fill="#FE2E01"/>
<path d="M179.864 179.302C183.834 179.302 187.053 176.097 187.053 172.145C187.053 168.192 183.834 164.987 179.864 164.987C175.894 164.987 172.676 168.192 172.676 172.145C172.676 176.097 175.894 179.302 179.864 179.302Z" fill="#FE2E01"/>
<path d="M166.052 170.884C170.022 170.884 173.24 167.679 173.24 163.727C173.24 159.774 170.022 156.569 166.052 156.569C162.082 156.569 158.863 159.774 158.863 163.727C158.863 167.679 162.082 170.884 166.052 170.884Z" fill="#FE2E01"/>
<path d="M170.845 156.042C174.815 156.042 178.033 152.838 178.033 148.885C178.033 144.932 174.815 141.728 170.845 141.728C166.875 141.728 163.656 144.932 163.656 148.885C163.656 152.838 166.875 156.042 170.845 156.042Z" fill="#FE2E01"/>
<path d="M184.02 164.225C187.991 164.225 191.209 161.02 191.209 157.067C191.209 153.115 187.991 149.91 184.02 149.91C180.05 149.91 176.832 153.115 176.832 157.067C176.832 161.02 180.05 164.225 184.02 164.225Z" fill="#FE2E01"/>
<path d="M203.763 157.56C207.733 157.56 210.951 154.355 210.951 150.402C210.951 146.45 207.733 143.245 203.763 143.245C199.793 143.245 196.574 146.45 196.574 150.402C196.574 154.355 199.793 157.56 203.763 157.56Z" fill="#FE2E01"/>
<path d="M217.61 164.054C221.58 164.054 224.799 160.849 224.799 156.896C224.799 152.944 221.58 149.739 217.61 149.739C213.64 149.739 210.422 152.944 210.422 156.896C210.422 160.849 213.64 164.054 217.61 164.054Z" fill="#FE2E01"/>
<path d="M190.599 150.054C194.569 150.054 197.787 146.849 197.787 142.896C197.787 138.944 194.569 135.739 190.599 135.739C186.628 135.739 183.41 138.944 183.41 142.896C183.41 146.849 186.628 150.054 190.599 150.054Z" fill="#FE2E01"/>
<path d="M162.72 201.814C166.69 201.814 169.908 198.609 169.908 194.656C169.908 190.703 166.69 187.499 162.72 187.499C158.75 187.499 155.531 190.703 155.531 194.656C155.531 198.609 158.75 201.814 162.72 201.814Z" fill="#FE2E01"/>
<path d="M305.95 279.21C309.92 279.21 313.139 276.006 313.139 272.053C313.139 268.1 309.92 264.896 305.95 264.896C301.98 264.896 298.762 268.1 298.762 272.053C298.762 276.006 301.98 279.21 305.95 279.21Z" fill="#FE2E01"/>
<path d="M304.352 295.49C308.323 295.49 311.541 292.286 311.541 288.333C311.541 284.38 308.323 281.176 304.352 281.176C300.382 281.176 297.164 284.38 297.164 288.333C297.164 292.286 300.382 295.49 304.352 295.49Z" fill="#FE2E01"/>
<path d="M326.759 321C330.729 321 333.947 317.796 333.947 313.843C333.947 309.89 330.729 306.686 326.759 306.686C322.789 306.686 319.57 309.89 319.57 313.843C319.57 317.796 322.789 321 326.759 321Z" fill="#FE2E01"/>
<path d="M303.446 311.279C307.416 311.279 310.634 308.075 310.634 304.122C310.634 300.169 307.416 296.965 303.446 296.965C299.476 296.965 296.258 300.169 296.258 304.122C296.258 308.075 299.476 311.279 303.446 311.279Z" fill="#FE2E01"/>
<path d="M288.977 298.218C292.948 298.218 296.166 295.013 296.166 291.061C296.166 287.108 292.948 283.903 288.977 283.903C285.007 283.903 281.789 287.108 281.789 291.061C281.789 295.013 285.007 298.218 288.977 298.218Z" fill="#FE2E01"/>
<path d="M290.782 282.615C294.752 282.615 297.971 279.411 297.971 275.458C297.971 271.505 294.752 268.301 290.782 268.301C286.812 268.301 283.594 271.505 283.594 275.458C283.594 279.411 286.812 282.615 290.782 282.615Z" fill="#FE2E01"/>
<path d="M273.329 298.667C277.299 298.667 280.517 295.463 280.517 291.51C280.517 287.557 277.299 284.353 273.329 284.353C269.359 284.353 266.141 287.557 266.141 291.51C266.141 295.463 269.359 298.667 273.329 298.667Z" fill="#FE2E01"/>
<path d="M287.946 313.635C291.916 313.635 295.135 310.43 295.135 306.477C295.135 302.525 291.916 299.32 287.946 299.32C283.976 299.32 280.758 302.525 280.758 306.477C280.758 310.43 283.976 313.635 287.946 313.635Z" fill="#FE2E01"/>
<path d="M272.314 313.85C276.284 313.85 279.502 310.645 279.502 306.692C279.502 302.74 276.284 299.535 272.314 299.535C268.343 299.535 265.125 302.74 265.125 306.692C265.125 310.645 268.343 313.85 272.314 313.85Z" fill="#FE2E01"/>
<path d="M256.731 311.956C260.701 311.956 263.92 308.752 263.92 304.799C263.92 300.846 260.701 297.642 256.731 297.642C252.761 297.642 249.543 300.846 249.543 304.799C249.543 308.752 252.761 311.956 256.731 311.956Z" fill="#FE2E01"/>
<path d="M344.259 253.038C348.229 253.038 351.447 249.834 351.447 245.881C351.447 241.928 348.229 238.724 344.259 238.724C340.289 238.724 337.07 241.928 337.07 245.881C337.07 249.834 340.289 253.038 344.259 253.038Z" fill="#FE2E01"/>
<path d="M353.13 240.085C357.1 240.085 360.318 236.881 360.318 232.928C360.318 228.975 357.1 225.771 353.13 225.771C349.16 225.771 345.941 228.975 345.941 232.928C345.941 236.881 349.16 240.085 353.13 240.085Z" fill="#FE2E01"/>
<path d="M365.341 249.52C369.311 249.52 372.529 246.316 372.529 242.363C372.529 238.41 369.311 235.206 365.341 235.206C361.371 235.206 358.152 238.41 358.152 242.363C358.152 246.316 361.371 249.52 365.341 249.52Z" fill="#FE2E01"/>
<path d="M385.145 244.343C389.115 244.343 392.334 241.138 392.334 237.186C392.334 233.233 389.115 230.028 385.145 230.028C381.175 230.028 377.957 233.233 377.957 237.186C377.957 241.138 381.175 244.343 385.145 244.343Z" fill="#FE2E01"/>
<path d="M377.954 258.236C381.924 258.236 385.143 255.032 385.143 251.079C385.143 247.126 381.924 243.922 377.954 243.922C373.984 243.922 370.766 247.126 370.766 251.079C370.766 255.032 373.984 258.236 377.954 258.236Z" fill="#FE2E01"/>
<path d="M368.856 271.05C372.826 271.05 376.045 267.845 376.045 263.893C376.045 259.94 372.826 256.735 368.856 256.735C364.886 256.735 361.668 259.94 361.668 263.893C361.668 267.845 364.886 271.05 368.856 271.05Z" fill="#FE2E01"/>
<path d="M358.278 282.615C362.248 282.615 365.466 279.411 365.466 275.458C365.466 271.505 362.248 268.301 358.278 268.301C354.308 268.301 351.09 271.505 351.09 275.458C351.09 279.411 354.308 282.615 358.278 282.615Z" fill="#FE2E01"/>
<path d="M356.325 304.848C360.295 304.848 363.514 301.643 363.514 297.69C363.514 293.738 360.295 290.533 356.325 290.533C352.355 290.533 349.137 293.738 349.137 297.69C349.137 301.643 352.355 304.848 356.325 304.848Z" fill="#FE2E01"/>
<path d="M345.52 273.534C349.491 273.534 352.709 270.33 352.709 266.377C352.709 262.424 349.491 259.22 345.52 259.22C341.55 259.22 338.332 262.424 338.332 266.377C338.332 270.33 341.55 273.534 345.52 273.534Z" fill="#FE2E01"/>
<path d="M332.981 283.027C336.951 283.027 340.17 279.823 340.17 275.87C340.17 271.917 336.951 268.713 332.981 268.713C329.011 268.713 325.793 271.917 325.793 275.87C325.793 279.823 329.011 283.027 332.981 283.027Z" fill="#FE2E01"/>
<path d="M333.192 264.034C337.162 264.034 340.381 260.83 340.381 256.877C340.381 252.924 337.162 249.72 333.192 249.72C329.222 249.72 326.004 252.924 326.004 256.877C326.004 260.83 329.222 264.034 333.192 264.034Z" fill="#FE2E01"/>
<path d="M320.321 272.893C324.291 272.893 327.51 269.688 327.51 265.735C327.51 261.783 324.291 258.578 320.321 258.578C316.351 258.578 313.133 261.783 313.133 265.735C313.133 269.688 316.351 272.893 320.321 272.893Z" fill="#FE2E01"/>
<path d="M319.196 290.299C323.166 290.299 326.385 287.094 326.385 283.142C326.385 279.189 323.166 275.984 319.196 275.984C315.226 275.984 312.008 279.189 312.008 283.142C312.008 287.094 315.226 290.299 319.196 290.299Z" fill="#FE2E01"/>
<path d="M332.852 300.668C336.823 300.668 340.041 297.464 340.041 293.511C340.041 289.558 336.823 286.354 332.852 286.354C328.882 286.354 325.664 289.558 325.664 293.511C325.664 297.464 328.882 300.668 332.852 300.668Z" fill="#FE2E01"/>
<path d="M356.294 262.261C360.264 262.261 363.482 259.056 363.482 255.104C363.482 251.151 360.264 247.946 356.294 247.946C352.324 247.946 349.105 251.151 349.105 255.104C349.105 259.056 352.324 262.261 356.294 262.261Z" fill="#FE2E01"/>
<path d="M355.782 162.125C359.752 162.125 362.971 158.921 362.971 154.968C362.971 151.015 359.752 147.811 355.782 147.811C351.812 147.811 348.594 151.015 348.594 154.968C348.594 158.921 351.812 162.125 355.782 162.125Z" fill="#FE2E01"/>
<path d="M345.356 176.944C349.327 176.944 352.545 173.74 352.545 169.787C352.545 165.834 349.327 162.63 345.356 162.63C341.386 162.63 338.168 165.834 338.168 169.787C338.168 173.74 341.386 176.944 345.356 176.944Z" fill="#FE2E01"/>
<path d="M361.165 176.81C365.135 176.81 368.353 173.605 368.353 169.652C368.353 165.7 365.135 162.495 361.165 162.495C357.195 162.495 353.977 165.7 353.977 169.652C353.977 173.605 357.195 176.81 361.165 176.81Z" fill="#FE2E01"/>
<path d="M378.431 186.003C382.401 186.003 385.619 182.798 385.619 178.846C385.619 174.893 382.401 171.688 378.431 171.688C374.461 171.688 371.242 174.893 371.242 178.846C371.242 182.798 374.461 186.003 378.431 186.003Z" fill="#FE2E01"/>
<path d="M347.759 148.643C351.729 148.643 354.947 145.438 354.947 141.485C354.947 137.533 351.729 134.328 347.759 134.328C343.789 134.328 340.57 137.533 340.57 141.485C340.57 145.438 343.789 148.643 347.759 148.643Z" fill="#FE2E01"/>
<path d="M338.852 162.787C342.823 162.787 346.041 159.583 346.041 155.63C346.041 151.677 342.823 148.473 338.852 148.473C334.882 148.473 331.664 151.677 331.664 155.63C331.664 159.583 334.882 162.787 338.852 162.787Z" fill="#FE2E01"/>
<path d="M340.688 119.68C344.658 119.68 347.877 116.475 347.877 112.522C347.877 108.57 344.658 105.365 340.688 105.365C336.718 105.365 333.5 108.57 333.5 112.522C333.5 116.475 336.718 119.68 340.688 119.68Z" fill="#FE2E01"/>
<path d="M340.735 101.27C344.705 101.27 347.924 98.066 347.924 94.1132C347.924 90.1604 344.705 86.9561 340.735 86.9561C336.765 86.9561 333.547 90.1604 333.547 94.1132C333.547 98.066 336.765 101.27 340.735 101.27Z" fill="#FE2E01"/>
<path d="M265.833 83.7226C269.803 83.7226 273.021 80.5182 273.021 76.5654C273.021 72.6126 269.803 69.4082 265.833 69.4082C261.863 69.4082 258.645 72.6126 258.645 76.5654C258.645 80.5182 261.863 83.7226 265.833 83.7226Z" fill="#FE2E01"/>
<path d="M285.024 67.3144C288.994 67.3144 292.213 64.11 292.213 60.1572C292.213 56.2044 288.994 53 285.024 53C281.054 53 277.836 56.2044 277.836 60.1572C277.836 64.11 281.054 67.3144 285.024 67.3144Z" fill="#FE2E01"/>
<path d="M147.606 184.686C151.576 184.686 154.795 181.481 154.795 177.528C154.795 173.575 151.576 170.371 147.606 170.371C143.636 170.371 140.418 173.575 140.418 177.528C140.418 181.481 143.636 184.686 147.606 184.686Z" fill="#FE2E01"/>
<path d="M250.516 86.4863C254.486 86.4863 257.705 83.2819 257.705 79.3291C257.705 75.3763 254.486 72.1719 250.516 72.1719C246.546 72.1719 243.328 75.3763 243.328 79.3291C243.328 83.2819 246.546 86.4863 250.516 86.4863Z" fill="#FE2E01"/>
<path d="M278.641 253.743C260.781 253.743 244.659 246.322 233.229 234.401C221.713 248.786 203.967 258.002 184.054 258.002C149.342 258.002 121.197 229.985 121.197 195.417C121.197 160.856 149.335 132.833 184.054 132.833C201.95 132.833 218.101 140.282 229.545 152.232C241.054 137.889 258.771 128.695 278.641 128.695C281.717 128.695 284.742 128.916 287.696 129.343C265.816 95.3943 227.578 72.9043 184.054 72.9043C116.09 72.8972 61 127.755 61 195.417C61 263.079 116.09 317.937 184.054 317.937C231.491 317.937 272.661 291.21 293.204 252.048C288.526 253.159 283.655 253.743 278.641 253.743Z" fill="black"/>
</svg>
